C:\Users\Nicos\Documents\OpenSimProjects\SprintingProject\Study1\PredictiveResults\IC_pred_Sprinting_optimum_27-October-2023__11-17-52_p02_maxVel_01___IKTD_Plus_2_GRF.mot
version=1
nRows=6
nColumns=127
inDegrees=yes
endheader
time	ground_force_vx	ground_force_vy	ground_force_vz	ground_force_px	ground_force_py	ground_force_pz	ground_torque_x	ground_torque_y	ground_torque_z	1_ground_force_vx	1_ground_force_vy	1_ground_force_vz	1_ground_force_px	1_ground_force_py	1_ground_force_pz	1_ground_torque_x	1_ground_torque_y	1_ground_torque_z	2_ground_force_vx	2_ground_force_vy	2_ground_force_vz	2_ground_force_px	2_ground_force_py	2_ground_force_pz	2_ground_torque_x	2_ground_torque_y	2_ground_torque_z	3_ground_force_vx	3_ground_force_vy	3_ground_force_vz	3_ground_force_px	3_ground_force_py	3_ground_force_pz	3_ground_torque_x	3_ground_torque_y	3_ground_torque_z	4_ground_force_vx	4_ground_force_vy	4_ground_force_vz	4_ground_force_px	4_ground_force_py	4_ground_force_pz	4_ground_torque_x	4_ground_torque_y	4_ground_torque_z	5_ground_force_vx	5_ground_force_vy	5_ground_force_vz	5_ground_force_px	5_ground_force_py	5_ground_force_pz	5_ground_torque_x	5_ground_torque_y	5_ground_torque_z	6_ground_force_vx	6_ground_force_vy	6_ground_force_vz	6_ground_force_px	6_ground_force_py	6_ground_force_pz	6_ground_torque_x	6_ground_torque_y	6_ground_torque_z	7_ground_force_vx	7_ground_force_vy	7_ground_force_vz	7_ground_force_px	7_ground_force_py	7_ground_force_pz	7_ground_torque_x	7_ground_torque_y	7_ground_torque_z	8_ground_force_vx	8_ground_force_vy	8_ground_force_vz	8_ground_force_px	8_ground_force_py	8_ground_force_pz	8_ground_torque_x	8_ground_torque_y	8_ground_torque_z	9_ground_force_vx	9_ground_force_vy	9_ground_force_vz	9_ground_force_px	9_ground_force_py	9_ground_force_pz	9_ground_torque_x	9_ground_torque_y	9_ground_torque_z	10_ground_force_vx	10_ground_force_vy	10_ground_force_vz	10_ground_force_px	10_ground_force_py	10_ground_force_pz	10_ground_torque_x	10_ground_torque_y	10_ground_torque_z	11_ground_force_vx	11_ground_force_vy	11_ground_force_vz	11_ground_force_px	11_ground_force_py	11_ground_force_pz	11_ground_torque_x	11_ground_torque_y	11_ground_torque_z	12_ground_force_vx	12_ground_force_vy	12_ground_force_vz	12_ground_force_px	12_ground_force_py	12_ground_force_pz	12_ground_torque_x	12_ground_torque_y	12_ground_torque_z	13_ground_force_vx	13_ground_force_vy	13_ground_force_vz	13_ground_force_px	13_ground_force_py	13_ground_force_pz	13_ground_torque_x	13_ground_torque_y	13_ground_torque_z
0.160222	-0.000000	0.000000	0.000000	0.513069	0.075847	0.411063	0.000000	0.000000	0.000000	-0.000000	0.000000	0.000000	0.521580	0.098181	0.431053	0.000000	0.000000	0.000000	-0.000000	0.000000	0.000000	0.531002	0.109955	0.427775	0.000000	0.000000	0.000000	-0.000000	0.000000	0.000000	0.529501	0.107771	0.405523	0.000000	0.000000	0.000000	-0.000000	0.000000	0.000000	0.542028	0.153278	0.455985	0.000000	0.000000	0.000000	-0.000000	0.000000	0.000000	0.534023	0.124580	0.421831	0.000000	0.000000	0.000000	-0.000000	0.000000	0.000000	0.546107	0.183079	0.398053	0.000000	0.000000	0.000000	-0.000000	0.000000	-0.000000	1.529943	0.114529	0.127644	0.000000	0.000000	0.000000	-0.000000	0.000000	-0.000000	1.495590	0.129088	0.106685	0.000000	0.000000	0.000000	-0.000000	0.000000	-0.000000	1.463115	0.134349	0.114796	0.000000	0.000000	0.000000	-0.000000	0.000000	-0.000000	1.460970	0.128932	0.134658	0.000000	0.000000	0.000000	-0.000000	0.000000	-0.000000	1.397665	0.163649	0.088205	0.000000	0.000000	0.000000	-0.000000	0.000000	-0.000000	1.436978	0.141314	0.119572	0.000000	0.000000	0.000000	-0.000000	0.000000	-0.000000	1.332429	0.169174	0.138676	0.000000	0.000000	0.000000
0.160868	-0.000000	0.000000	0.000000	0.517819	0.077937	0.410703	0.000000	0.000000	0.000000	-0.000000	0.000000	0.000000	0.526666	0.100208	0.430825	0.000000	0.000000	0.000000	-0.000000	0.000000	0.000000	0.536266	0.111965	0.427587	0.000000	0.000000	0.000000	-0.000000	0.000000	0.000000	0.534750	0.109819	0.405321	0.000000	0.000000	0.000000	-0.000000	0.000000	0.000000	0.548001	0.155200	0.456050	0.000000	0.000000	0.000000	-0.000000	0.000000	0.000000	0.539541	0.126585	0.421728	0.000000	0.000000	0.000000	-0.000000	0.000000	0.000000	0.552643	0.185063	0.398290	0.000000	0.000000	0.000000	-0.000000	0.000000	-0.000000	1.544018	0.113774	0.128217	0.000000	0.000000	0.000000	-0.000000	0.000000	-0.000000	1.509412	0.128169	0.107222	0.000000	0.000000	0.000000	-0.000000	0.000000	-0.000000	1.476850	0.133297	0.115327	0.000000	0.000000	0.000000	-0.000000	0.000000	-0.000000	1.474803	0.127886	0.135205	0.000000	0.000000	0.000000	-0.000000	0.000000	-0.000000	1.410891	0.162295	0.088663	0.000000	0.000000	0.000000	-0.000000	0.000000	-0.000000	1.450595	0.140153	0.120088	0.000000	0.000000	0.000000	-0.000000	0.000000	-0.000000	1.345576	0.167577	0.139136	0.000000	0.000000	0.000000
0.162910	-0.000000	0.000000	0.000000	0.533286	0.084550	0.409557	0.000000	0.000000	0.000000	-0.000000	0.000000	0.000000	0.543149	0.106619	0.430093	0.000000	0.000000	0.000000	-0.000000	0.000000	0.000000	0.553295	0.118318	0.426990	0.000000	0.000000	0.000000	-0.000000	0.000000	0.000000	0.551746	0.116289	0.404683	0.000000	0.000000	0.000000	-0.000000	0.000000	0.000000	0.567178	0.161260	0.456249	0.000000	0.000000	0.000000	-0.000000	0.000000	0.000000	0.557351	0.132915	0.421398	0.000000	0.000000	0.000000	-0.000000	0.000000	0.000000	0.573573	0.191302	0.399030	0.000000	0.000000	0.000000	-0.000000	0.000000	-0.000000	1.588388	0.111491	0.130024	0.000000	0.000000	0.000000	-0.000000	0.000000	-0.000000	1.553004	0.125365	0.108922	0.000000	0.000000	0.000000	-0.000000	0.000000	-0.000000	1.520184	0.130073	0.117006	0.000000	0.000000	0.000000	-0.000000	0.000000	-0.000000	1.518444	0.124684	0.136938	0.000000	0.000000	0.000000	-0.000000	0.000000	-0.000000	1.452670	0.158108	0.090123	0.000000	0.000000	0.000000	-0.000000	0.000000	-0.000000	1.493574	0.136585	0.121726	0.000000	0.000000	0.000000	-0.000000	0.000000	-0.000000	1.387133	0.162633	0.140603	0.000000	0.000000	0.000000
0.164390	-0.000000	0.000000	0.000000	0.544932	0.089343	0.408803	0.000000	0.000000	0.000000	-0.000000	0.000000	0.000000	0.555499	0.111265	0.429617	0.000000	0.000000	0.000000	-0.000000	0.000000	0.000000	0.566027	0.122916	0.426609	0.000000	0.000000	0.000000	-0.000000	0.000000	0.000000	0.564455	0.120967	0.404274	0.000000	0.000000	0.000000	-0.000000	0.000000	0.000000	0.581393	0.165639	0.456405	0.000000	0.000000	0.000000	-0.000000	0.000000	0.000000	0.570622	0.137490	0.421198	0.000000	0.000000	0.000000	-0.000000	0.000000	0.000000	0.589003	0.195787	0.399556	0.000000	0.000000	0.000000	-0.000000	0.000000	-0.000000	1.620408	0.109941	0.131337	0.000000	0.000000	0.000000	-0.000000	0.000000	-0.000000	1.584483	0.123433	0.110158	0.000000	0.000000	0.000000	-0.000000	0.000000	-0.000000	1.551492	0.127838	0.118228	0.000000	0.000000	0.000000	-0.000000	0.000000	-0.000000	1.549971	0.122469	0.138200	0.000000	0.000000	0.000000	-0.000000	0.000000	-0.000000	1.482895	0.155169	0.091187	0.000000	0.000000	0.000000	-0.000000	0.000000	-0.000000	1.524639	0.134101	0.122918	0.000000	0.000000	0.000000	-0.000000	0.000000	-0.000000	1.417224	0.159152	0.141674	0.000000	0.000000	0.000000
0.165037	-0.000000	0.000000	0.000000	0.550133	0.091434	0.408512	0.000000	0.000000	0.000000	-0.000000	0.000000	0.000000	0.561002	0.113292	0.429439	0.000000	0.000000	0.000000	-0.000000	0.000000	0.000000	0.571693	0.124921	0.426468	0.000000	0.000000	0.000000	-0.000000	0.000000	0.000000	0.570109	0.123005	0.404123	0.000000	0.000000	0.000000	-0.000000	0.000000	0.000000	0.587691	0.167548	0.456481	0.000000	0.000000	0.000000	-0.000000	0.000000	0.000000	0.576516	0.139484	0.421131	0.000000	0.000000	0.000000	-0.000000	0.000000	0.000000	0.595809	0.197733	0.399783	0.000000	0.000000	0.000000	-0.000000	0.000000	-0.000000	1.634344	0.109294	0.131912	0.000000	0.000000	0.000000	-0.000000	0.000000	-0.000000	1.598190	0.122618	0.110699	0.000000	0.000000	0.000000	-0.000000	0.000000	-0.000000	1.565128	0.126891	0.118764	0.000000	0.000000	0.000000	-0.000000	0.000000	-0.000000	1.563702	0.121532	0.138753	0.000000	0.000000	0.000000	-0.000000	0.000000	-0.000000	1.496068	0.153912	0.091652	0.000000	0.000000	0.000000	-0.000000	0.000000	-0.000000	1.538171	0.133045	0.123440	0.000000	0.000000	0.000000	-0.000000	0.000000	-0.000000	1.430345	0.157660	0.142144	0.000000	0.000000	0.000000
0.167079	-0.000000	0.000000	0.000000	0.567003	0.098024	0.407819	0.000000	0.000000	0.000000	-0.000000	0.000000	0.000000	0.578822	0.119686	0.429047	0.000000	0.000000	0.000000	-0.000000	0.000000	0.000000	0.590014	0.131236	0.426174	0.000000	0.000000	0.000000	-0.000000	0.000000	0.000000	0.588371	0.129414	0.403802	0.000000	0.000000	0.000000	-0.000000	0.000000	0.000000	0.607975	0.173563	0.456772	0.000000	0.000000	0.000000	-0.000000	0.000000	0.000000	0.595529	0.145755	0.421036	0.000000	0.000000	0.000000	-0.000000	0.000000	0.000000	0.617589	0.203831	0.400487	0.000000	0.000000	0.000000	-0.000000	0.000000	-0.000000	1.678143	0.107372	0.133745	0.000000	0.000000	0.000000	-0.000000	0.000000	-0.000000	1.641285	0.120158	0.112419	0.000000	0.000000	0.000000	-0.000000	0.000000	-0.000000	1.608015	0.124016	0.120465	0.000000	0.000000	0.000000	-0.000000	0.000000	-0.000000	1.606886	0.118694	0.140513	0.000000	0.000000	0.000000	-0.000000	0.000000	-0.000000	1.537537	0.150045	0.093119	0.000000	0.000000	0.000000	-0.000000	0.000000	-0.000000	1.580747	0.129825	0.125097	0.000000	0.000000	0.000000	-0.000000	0.000000	-0.000000	1.471674	0.153062	0.143624	0.000000	0.000000	0.000000
